HIERARCHY
ROOT ui
{
	 OFFSET 0 0 0
	 CHANNELS 3 XPosition YPosition Z Position
	 EndSite
	 {
	 OFFSET 0 -1 0
	 }
}
ROOT li
{
	 OFFSET 0 0 0
	 CHANNELS 3 XPosition YPosition Z Position
	 EndSite
	 {
	 OFFSET 0 -1 0
	 }
}
ROOT ul
{
	 OFFSET 0 0 0
	 CHANNELS 3 XPosition YPosition Z Position
	 EndSite
	 {
	 OFFSET 0 -1 0
	 }
}
ROOT ll
{
	 OFFSET 0 0 0
	 CHANNELS 3 XPosition YPosition Z Position
	 EndSite
	 {
	 OFFSET 0 -1 0
	 }
}
ROOT tt
{
	 OFFSET 0 0 0
	 CHANNELS 3 XPosition YPosition Z Position
	 EndSite
	 {
	 OFFSET 0 -1 0
	 }
}
ROOT tb
{
	 OFFSET 0 0 0
	 CHANNELS 3 XPosition YPosition Z Position
	 EndSite
	 {
	 OFFSET 0 -1 0
	 }
}
ROOT td
{
	 OFFSET 0 0 0
	 CHANNELS 3 XPosition YPosition Z Position
	 EndSite
	 {
	 OFFSET 0 -1 0
	 }
}
ROOT v
{
	 OFFSET 0 0 0
	 CHANNELS 3 XPosition YPosition Z Position
	 EndSite
	 {
	 OFFSET 0 -1 0
	 }
}
ROOT bn
{
	 OFFSET 0 0 0
	 CHANNELS 3 XPosition YPosition Z Position
	 EndSite
	 {
	 OFFSET 0 -1 0
	 }
}
MOTION
Frames: 21
Frame Time: 0.002
-0.011212013244628906	3.331120014190674E-4	0		0.477880126953125	-2.29891357421875	0		-1.042845947265625	-0.02102913475036621	0		-0.71432080078125	-2.24704833984375	0		1.6686258544921875	-0.4743739013671875	0		3.274791748046875	0.06759671783447266	0		4.660974609375	0.06285955047607422	0		5.635779296875	0.04335071182250977	0		-0.029310733795166015	5.942884765625	0		
0.05901374435424805	0.0025105249881744386	0		0.4759665832519531	-2.299307861328125	0		-1.00869384765625	-0.022096410751342773	0		-0.7141929931640625	-2.245445068359375	0		1.666770751953125	-0.4748065185546875	0		3.25795703125	0.06741329956054687	0		4.646119140625	0.061591873168945314	0		5.63394091796875	0.04279109191894531	0		-0.02998066520690918	5.94148681640625	0		
-0.014937451362609863	-4.2258799076080324E-4	0		0.43303671264648436	-2.29787744140625	0		-1.038433837890625	-0.014881176948547363	0		-0.7480025024414062	-2.238158935546875	0		1.676907958984375	-0.473477783203125	0		3.30600341796875	0.06292996978759766	0		4.64835498046875	0.06698617553710938	0		5.6403759765625	0.05807185363769531	0		-0.0013029489517211914	5.95950439453125	0		
0.0632151756286621	5.9620600938797E-4	0		0.48022479248046873	-2.29125048828125	0		-0.9992738037109375	-0.013046560287475585	0		-0.71197119140625	-2.239272216796875	0		1.672203369140625	-0.4638443298339844	0		3.268442626953125	0.07917505645751953	0		4.65746337890625	0.0662479476928711	0		5.638486328125	0.057523963928222656	0		-0.01918712043762207	5.950455078125	0		
-0.02053126335144043	0.006878376960754395	0		0.4472572021484375	-2.29300634765625	0		-1.050329345703125	-0.02239337921142578	0		-0.7179829711914063	-2.24353515625	0		1.6641656494140624	-0.47213876342773436	0		3.2673193359375	0.06569200134277343	0		4.64250390625	0.061002792358398436	0		5.6283037109375	0.04115045547485351	0		-0.03506792831420898	5.9403740234375	0		
0.05646363830566406	-0.004069263935089111	0		0.46823452758789064	-2.30083935546875	0		-1.0161451416015626	-0.023444766998291015	0		-0.7219183959960938	-2.246829833984375	0		1.6623436279296875	-0.4725460205078125	0		3.2505166015625	0.06553895568847656	0		4.64069775390625	0.060505859375	0		5.62649755859375	0.04062382888793945	0		-0.03669677734375	5.940017578125	0		
-0.027127052307128908	0.003236867904663086	0		0.41254898071289064	-2.29511083984375	0		-1.053866943359375	-0.023034152984619142	0		-0.7237142944335937	-2.247155029296875	0		1.6606009521484375	-0.4729427795410156	0		3.26964453125	0.05767183685302734	0		4.636951171875	0.05906026077270508	0		5.6199326171875	0.0482073860168457	0		-0.024047834396362305	5.94938720703125	0		
0.04820718002319336	3.4510698914527895E-4	0		0.4688377685546875	-2.2966318359375	0		-1.047357666015625	-0.01650097846984863	0		-0.7951956176757813	-2.236054931640625	0		1.658956787109375	-0.47332855224609377	0		3.252464599609375	0.07955648040771485	0		4.6353232421875	0.05858443069458008	0		5.63146337890625	0.05543725204467773	0		-0.026457014083862303	5.951072265625	0		
-0.02721194076538086	0.005518506050109864	0		0.4423377075195313	-2.2924638671875	0		-1.044793212890625	-0.012873690605163574	0		-0.7228964233398437	-2.242851318359375	0		1.6605072021484375	-0.4697645263671875	0		3.270603271484375	0.061731277465820314	0		4.62897265625	0.06621780395507812	0		5.61679052734375	0.0472052001953125	0		-0.1744676513671875	5.91871435546875	0		
0.04836454772949219	0.0026469171047210694	0		0.4657915649414063	-2.297294677734375	0		-1.054321533203125	-0.0199875545501709	0		-0.7633466796875	-2.242347900390625	0		1.6560242919921875	-0.47406576538085937	0		3.295354248046875	0.06778865814208984	0		4.6385849609375	0.0655380859375	0		5.6202412109375	0.03861769485473633	0		-0.04320879745483398	5.9397265625	0		
-0.0329085807800293	0.001972934007644653	0		0.4624089050292969	-2.300566650390625	0		-1.0596517333984374	-0.024170303344726564	0		-0.72977587890625	-2.24833203125	0		1.6547601318359375	-0.47441677856445313	0		3.25801318359375	0.06311806869506836	0		4.637337890625	0.06509229278564453	0		5.6189931640625	0.03814070510864258	0		-0.04426910400390625	5.9394296875	0		
0.047850151062011716	-0.005980738162994385	0		0.45919451904296876	-2.3028271484375	0		-1.0607547607421874	-0.024424455642700196	0		-0.767879638671875	-2.24484423828125	0		1.6505623779296874	-0.4786938171386719	0		3.256912841796875	0.06272908782958984	0		4.63623779296875	0.06466023254394532	0		5.62205419921875	0.04559493637084961	0		-0.030005834579467774	5.94783642578125	0		
-0.030062707901000976	-0.0036903378963470458	0		0.4353242492675781	-2.29565087890625	0		-1.0535634765625	-0.017834537506103514	0		-0.7278633422851563	-2.2439345703125	0		1.6557608642578125	-0.4711441650390625	0		3.274900634765625	0.05896819305419922	0		4.63325048828125	0.06228599166870117	0		5.6162705078125	0.0532503662109375	0		-0.014597482681274414	5.956232421875	0		
0.056331447601318356	0.0042652621269226075	0		0.46550344848632813	-2.294563720703125	0		-1.05027490234375	-0.01415556812286377	0		-0.7605675659179687	-2.236530517578125	0		1.6549560546875	-0.4714576416015625	0		3.254441162109375	0.07501475524902344	0		4.6345009765625	0.06384894180297851	0		5.624478515625	0.05264370346069336	0		-0.01618346405029297	5.95798486328125	0		
-0.028406436920166016	-2.7685600519180295E-4	0		0.4607323913574219	-2.2987509765625	0		-1.027137939453125	-0.02587574577331543	0		-0.7314464111328125	-2.246381103515625	0		1.6512303466796876	-0.475695068359375	0		3.239547607421875	0.0619640884399414	0		4.63386962890625	0.06347509765625	0		5.61968408203125	0.044328571319580075	0		-0.04609086227416992	5.93732421875	0		
0.043164051055908204	0.0010013959407806396	0		0.4581455078125	-2.301968505859375	0		-1.0636068115234374	-0.025366029739379882	0		-0.7340321655273437	-2.249572509765625	0		1.650744140625	-0.4759801330566406	0		3.25406982421875	0.06133757019042969	0		4.634087890625	0.048107662200927735	0		5.61504638671875	0.03604043960571289	0		-0.047416492462158205	5.93809619140625	0		
-0.03718294143676758	3.986150026321411E-4	0		0.45778045654296873	-2.302217041015625	0		-1.06393017578125	-0.025586734771728514	0		-0.7343963012695313	-2.24979931640625	0		1.647331298828125	-0.4801883544921875	0		3.263705078125	0.05883338165283203	0		4.62207568359375	0.06302500152587891	0		5.60988916015625	0.04379794692993164	0		-0.03340816879272461	5.94856787109375	0		
0.04450138854980469	-0.007511373043060303	0		0.41456005859375	-2.302574462890625	0		-1.05596435546875	-0.01896851348876953	0		-0.766454345703125	-2.242366455078125	0		1.6502301025390624	-0.47650640869140626	0		3.264714599609375	0.06753179931640625	0		4.62190087890625	0.06272608947753906	0		5.60971435546875	0.04348470306396485	0		-0.03349740219116211	5.94833642578125	0		
0.04262956237792969	3.038949966430664E-4	0		0.4616131591796875	-2.29776708984375	0		-1.0519195556640626	-0.015263995170593262	0		-0.7285216674804688	-2.24336083984375	0		1.6532703857421875	-0.4728094177246094	0		3.263494873046875	0.05829680252075195	0		4.62670068359375	0.054353839874267576	0		5.6186767578125	0.0430185546875	0		-0.03347195816040039	5.94811328125	0		
-0.03424306869506836	0.00266737699508667	0		0.43269631958007815	-2.297389892578125	0		-1.0559100341796874	-0.019389713287353515	0		-0.7325255126953125	-2.247488525390625	0		1.65027685546875	-0.4769716796875	0		3.28972412109375	0.06452808380126954	0		4.62195654296875	0.06221242904663086	0		5.6146044921875	0.03485412216186524	0		-0.03334601211547852	5.94789892578125	0		
0.03985960006713867	-0.0030542829036712647	0		0.45778582763671877	-2.303107177734375	0		-1.0597705078125	-0.022510908126831056	0		-0.7343892211914063	-2.250651123046875	0		1.6473951416015624	-0.48111663818359374	0		3.25309619140625	0.07307562255859375	0		4.63315478515625	0.06177571487426758	0		5.6090107421875	0.04476260375976562	0		-0.04833999633789063	5.93800341796875	0		
